<?xml version="1.0" encoding="UTF-8"?>
<svg width="200" height="200" version="1.1" viewBox="0 0 200 200" xmlns="http://www.w3.org/2000/svg">
 <g transform="translate(0 -97)">
  <circle cx="100" cy="197" r="90" fill="#4ade80" fill-opacity=".2" stroke="#16a34a" stroke-width="8"/>
  <g transform="matrix(.72 0 0 .72 28 64.16)">
   <path d="m100 197s-40-35-40-65c0-22.09 17.91-40 40-40 22.09 0 40 17.91 40 40 0 30-40 65-40 65z" fill="#16a34a"/>
   <path d="m100 167c-19.33 0-35-15.67-35-35s15.67-35 35-35 35 15.67 35 35-15.67 35-35 35zm0-60c-13.79 0-25 11.21-25 25s11.21 25 25 25 25-11.21 25-25-11.21-25-25-25z" fill="#4ade80"/>
  </g>
  <path d="m70 217h60" fill="none" stroke="#16a34a" stroke-linecap="round" stroke-width="8"/>
  <path d="m85 232h30" fill="none" stroke="#16a34a" stroke-linecap="round" stroke-width="8"/>
 </g>
</svg>
